<?xml version="1.0" encoding="UTF-8"?>
<svg id="Layer_1" data-name="Layer 1" xmlns="http://www.w3.org/2000/svg" viewBox="0 0 148.5 17.05">
  <defs>
    <style>
      .cls-1 {
        fill: #11415e;
      }

      .cls-2 {
        fill: #ed1c24;
      }
    </style>
  </defs>
  <g>
    <path class="cls-1" d="m25.59,1.66l-4.57,10.89-4.31-9.87c-.42-.99-.97-1.35-2.05-1.35s-1.59.35-2.03,1.35l-4.48,9.87L3.73,1.66H0l5.85,13.95c.35.86.93,1.44,2.01,1.44s1.72-.57,2.14-1.44l4.61-9.72,4.37,9.72c.4.88,1.06,1.44,2.12,1.44.97,0,1.61-.6,1.99-1.44.97-2.27,5.14-11.66,6.16-13.95h-3.67Z"/>
    <path class="cls-1" d="m40.18,4.75h-5.78c-4.22,0-5.43,1.17-5.43,4.66v2.76c0,3.18,1.48,4.55,5.28,4.55h3.89v-2.5h-3.89c-1.55,0-1.99-.26-1.99-1.72v-.55h12.3v-3.93c0-1.9-.95-3.27-4.37-3.27Zm1.08,5.08h-9.01v-.64c0-1.72.53-1.9,2.19-1.9h5.48c.99,0,1.35.2,1.35.99v1.55Z"/>
    <path class="cls-1" d="m56.81,4.75h-6.65V.88h-3.29v10.66c0,3.8,1.3,5.17,5.74,5.17h4.2c4.46,0,5.76-1.37,5.76-5.17v-1.61c0-3.82-1.3-5.19-5.76-5.19Zm2.47,6.71c0,1.99-.51,2.47-2.58,2.47h-3.97c-2.08,0-2.56-.49-2.56-2.45v-3.91h6.54c2.08,0,2.58.4,2.58,2.47v1.41Z"/>
    <path class="cls-1" d="m97.06,3.86h-4c-4.44,0-5.74,1.37-5.74,5.19v1.61c0,3.8,1.3,5.17,5.74,5.17h4c4.46,0,5.76-1.37,5.76-5.17v-1.59c0-3.84-1.3-5.21-5.76-5.21Zm2.47,6.71c0,1.99-.53,2.47-2.91,2.47h-3.11c-2.34,0-2.89-.49-2.89-2.47v-1.41c0-2.03.55-2.47,2.89-2.47h3.11c2.38,0,2.91.44,2.91,2.47v1.41Z"/>
    <path class="cls-1" d="m117.61,3.86h-6.65c-4.48,0-5.78,1.37-5.78,5.19v1.61c0,3.8,1.3,5.17,5.78,5.17h4.17c4.46,0,5.76-1.37,5.76-5.17V0h-3.29v3.86Zm0,6.73c0,1.99-.49,2.45-2.56,2.45h-3.67c-2.34,0-2.91-.38-2.91-2.47v-1.41c0-2.14.57-2.47,2.89-2.47h6.25v3.91Z"/>
    <path class="cls-1" d="m134.55,3.86h-5.78c-4.22,0-5.43,1.17-5.43,4.66v2.76c0,3.18,1.48,4.55,5.28,4.55h3.89v-2.5h-3.89c-1.55,0-1.99-.26-1.99-1.72v-.55h12.3v-3.93c0-1.9-.95-3.27-4.37-3.27Zm1.08,5.08h-9.01v-.64c0-1.72.53-1.9,2.19-1.9h5.48c.99,0,1.35.2,1.35.99v1.55Z"/>
    <path class="cls-1" d="m146.36,3.86c-4.04,0-5.17,1.46-5.17,5.03v6.93h3.29v-6.91c0-1.9.13-2.38,1.97-2.38h2.05v-2.67h-2.14Z"/>
  </g>
  <path class="cls-2" d="m80.91,1.05h-9.52c-1.66,0-3.01,1.34-3.01,3v9.51c0,1.66,1.35,3,3.01,3h9.52c1.66,0,3.01-1.34,3.01-3V4.05c0-1.66-1.35-3-3.01-3Zm1.11,4.5h-7.46c-1.49,0-1.86.45-1.86,1.83v3.31c0,1.4.37,1.82,1.87,1.82h7.44v2.15h-7.57c-3.22,0-4.16-1.02-4.16-3.87v-3.54c0-2.84.94-3.87,4.16-3.87h7.57v2.17Z"/>
</svg>